<?xml version="1.0" encoding="UTF-8"?>
<svg id="Camada_2" data-name="Camada 2" xmlns="http://www.w3.org/2000/svg" viewBox="0 0 160 32">
  <defs>
    <style>
      .cls-1 {
        font-family: Gotham-Book, Gotham;
      }

      .cls-1, .cls-2, .cls-3 {
        fill: #eee;
      }

      .cls-1, .cls-3 {
        font-size: 7.29px;
      }

      .cls-2, .cls-4 {
        fill-rule: evenodd;
      }

      .cls-5 {
        letter-spacing: -.02em;
      }

      .cls-6 {
        letter-spacing: 0em;
      }

      .cls-4 {
        fill: #ffa300;
      }

      .cls-3 {
        font-family: Gotham-Black, 'Gotham Black';
        font-weight: 800;
      }

      .cls-7 {
        letter-spacing: -.02em;
      }
    </style>
  </defs>
  <g id="Camada_1-2" data-name="Camada 1">
    <g>
      <path class="cls-2" d="M87.51,8.77h2.8c.05-4.38.41-3.51-3.75-3.58-1.02-3.44-.61-3.03-4.14-3.01h-.08c.39,2.55-1.05,17.35,1.09,19.1,1.14,1.5,4.37,1.15,6.19,1.18.38,0,.69-.31.69-.69v-2.89c-.86-.03-2.47.2-2.99-.57-.97-.94-.32-7.56-.5-8.84,0-.38.32-.7.69-.7ZM76.21,8.77h2.8c.05-4.38.41-3.51-3.76-3.58-1.02-3.44-.61-3.03-4.14-3.01h-.08c.4,2.55-1.05,17.35,1.1,19.1,1.13,1.5,4.36,1.15,6.18,1.18.38,0,.7-.31.7-.69v-2.89c-.86-.03-2.47.19-3-.57-.97-.93-.32-7.56-.49-8.84,0-.38.31-.7.69-.7ZM67.73,15.59c.9-6.17-.66-10.36-7.06-10.4-5.66,0-8.6,2.77-8.6,8.44,0,6.08,3.33,8.83,9.38,8.83,1.47-.21,5.77.42,5.9-1.27v-2.83c-3.3.69-10.98,1.34-10.81-2.78h11.18ZM63.52,12.27h-6.96c-.19-4.57,7.56-4.87,6.96,0ZM106.54,6.57c-2.46-1.71-8.2-1.66-11.64-.73-1.2.19-.53,3.04-.7,3.8,2.01-.56,9.34-2.06,10.04.4-.74,3.33-14.46-.11-10.81,9.86,2.37,3.41,7.76,3.05,11.14,1.38,1.51,1.15,2.24,1.3,4.12,1.19v-11.58c0-1.94-.7-3.38-2.15-4.32ZM104.23,17.59c-5.94,3.71-11.45-1.56-1.57-2.6.59-.15,1.15-.3,1.57-.55v3.14ZM39.6,9.98c.72-2.83,7.97-.74,9.67-.26,0,0,0-3.01,0-3.02-.34-1.75-5.01-1.55-6.54-1.71-3.51-.03-7.5.83-7.52,5.18-.01,4.34,3.83,4.82,7.05,5.52,2.4.26,4.75,1.56,2.57,2.99-2.34.89-6.77-.14-8.8-.86-.11,4.99-.32,4.07,5.16,4.78,3.69.16,8.92-.36,8.94-5.3.14-6.79-9.94-4.13-10.54-7.32Z"/>
      <g>
        <path class="cls-4" d="M1.93,12.74c-2.57-.8-2.67-4.23.25-4.23,2.5.8,4.78,2.64,7.14,3.83,3.73,1.77.48,4.01-1.71,5.16-.25.17-1.9,1.33-2.07,1.24-.2-.11.03-.73.08-.9.76-3-1.53-3.92-3.7-5.1h0Z"/>
        <path class="cls-4" d="M26.61,19.19c2.57.8,2.67,4.23-.25,4.23-2.5-.8-4.78-2.64-7.14-3.83-3.73-1.77-.48-4.01,1.71-5.16.26-.17,1.91-1.31,2.06-1.25.22.08-.06.82-.1,1.03-.79,2.69,1.76,4.01,3.72,4.99h0Z"/>
        <path class="cls-4" d="M5.13,25.68c-2.07,1.87-5.01.22-3.48-2.39,2.01-1.81,4.78-2.89,7.05-4.38,3.48-2.41,3.68,1.63,3.51,4.17.01.3.14,2.4-.04,2.48-.2.09-.67-.47-.8-.61-2.16-2.12-4.12-.53-6.23.74h0Z"/>
        <path class="cls-4" d="M23.53,6.41c2.01-1.87,4.86-.22,3.38,2.39-1.95,1.81-4.64,2.89-6.84,4.38-3.38,2.41-3.57-1.63-3.4-4.17,0-.33-.1-2.34.01-2.47.16-.18.62.42.72.53,2.1,2.21,4.03.65,6.13-.67h0Z"/>
        <path class="cls-4" d="M11.2,3.09c-.49-2.75,2.36-4.41,3.74-1.74.48,2.66-.04,5.6.05,8.32.22,4.24-3.2,2.3-5.21.83-.26-.15-2.03-1.14-2.03-1.32,0-.23.71-.33.88-.37,2.87-.72,2.56-3.25,2.57-5.74h0Z"/>
        <path class="cls-4" d="M17.6,28.88c.53,2.75-2.3,4.44-3.71,1.79-.28-.66-.21-1.99-.2-2.73.01-1.86.04-3.73.05-5.59-.26-1.47.66-3.18,2.28-2.53.93.31,2.05,1.11,2.92,1.62.25.14,2.07,1.11,2.04,1.31-.03.21-.68.32-.86.36-2.68.51-2.64,3.54-2.52,5.78h0Z"/>
      </g>
      <text class="cls-3" transform="translate(116.73 9.21)"><tspan x="0" y="0">Ene</tspan><tspan class="cls-6" x="13.89" y="0">r</tspan><tspan x="16.94" y="0">gia</tspan></text>
      <text class="cls-1" transform="translate(116.73 16.48)"><tspan x="0" y="0">que car</tspan><tspan class="cls-7" x="27.16" y="0">r</tspan><tspan x="29.96" y="0">ega</tspan></text>
      <text class="cls-1" transform="translate(116.73 23.74)"><tspan x="0" y="0">o futu</tspan><tspan class="cls-7" x="21.49" y="0">r</tspan><tspan class="cls-5" x="24.29" y="0">o</tspan><tspan x="28.86" y="0">.</tspan></text>
    </g>
  </g>
</svg>