<?xml version="1.0" encoding="UTF-8"?>
<svg id="Right" xmlns="http://www.w3.org/2000/svg" viewBox="0 0 156.23 60.82">
  <defs>
    <style>
      .cls-1, .cls-2 {
        fill-rule: evenodd;
      }

      .cls-1, .cls-3 {
        fill: #eee;
      }

      .cls-2 {
        fill: #ffa300;
      }
    </style>
  </defs>
  <path class="cls-1" d="M84.97,24.06h2.47c.05-3.85.36-3.08-3.3-3.14-.9-3.02-.53-2.66-3.64-2.64h-.07c.34,2.24-.92,15.23.96,16.77,1,1.32,3.84,1.01,5.44,1.04.34,0,.61-.27.61-.61v-2.54c-.75-.02-2.17.17-2.63-.5-.86-.82-.28-6.64-.44-7.76,0-.34.28-.61.61-.61ZM75.04,24.06h2.47c.04-3.85.36-3.08-3.3-3.14-.9-3.02-.53-2.66-3.64-2.64h-.07c.35,2.24-.92,15.23.97,16.77.99,1.32,3.84,1.01,5.43,1.04.34,0,.61-.27.61-.61v-2.54c-.76-.02-2.18.17-2.64-.5-.86-.82-.28-6.64-.43-7.76,0-.34.27-.61.61-.61ZM67.58,30.05c.79-5.42-.58-9.09-6.2-9.13-4.98,0-7.56,2.43-7.56,7.41,0,5.33,2.93,7.75,8.24,7.75,1.29-.18,5.07.37,5.19-1.11v-2.48c-2.9.61-9.66,1.18-9.5-2.44h9.82ZM63.88,27.13h-6.12c-.17-4.02,6.65-4.28,6.12,0ZM101.7,22.13c-2.16-1.5-7.21-1.46-10.23-.64-1.05.16-.47,2.67-.61,3.34,1.77-.49,8.21-1.81,8.82.35-.65,2.92-12.71-.09-9.5,8.65,2.08,2.99,6.82,2.68,9.79,1.21,1.33,1.01,1.97,1.15,3.62,1.05v-10.17c0-1.71-.62-2.97-1.89-3.8ZM99.66,31.8c-5.22,3.26-10.06-1.37-1.38-2.28.52-.13,1.01-.26,1.38-.48v2.76ZM42.85,25.12c.64-2.49,7.01-.65,8.5-.23,0,0,0-2.64,0-2.65-.3-1.54-4.4-1.36-5.75-1.5-3.08-.03-6.59.73-6.61,4.55-.01,3.81,3.37,4.24,6.2,4.84,2.11.23,4.18,1.37,2.26,2.63-2.06.78-5.95-.13-7.74-.76-.1,4.38-.28,3.58,4.54,4.2,3.25.14,7.85-.31,7.86-4.65.12-5.96-8.74-3.63-9.27-6.43Z"/>
  <g>
    <path class="cls-2" d="M9.74,27.55c-2.26-.7-2.35-3.72.22-3.71,2.2.7,4.2,2.32,6.28,3.36,3.28,1.56.42,3.52-1.51,4.53-.22.15-1.67,1.17-1.82,1.09-.18-.1.02-.64.07-.79.67-2.63-1.34-3.44-3.25-4.48h0Z"/>
    <path class="cls-2" d="M31.43,33.21c2.26.7,2.35,3.72-.22,3.71-2.2-.7-4.2-2.32-6.28-3.36-3.28-1.56-.42-3.52,1.51-4.53.22-.15,1.68-1.15,1.81-1.1.2.07-.05.72-.09.9-.69,2.37,1.55,3.52,3.27,4.38h0Z"/>
    <path class="cls-2" d="M12.55,38.9c-1.82,1.64-4.4.19-3.06-2.1,1.76-1.59,4.2-2.54,6.19-3.85,3.06-2.11,3.23,1.43,3.08,3.66.01.27.12,2.1-.04,2.18-.17.08-.59-.42-.7-.54-1.9-1.86-3.63-.47-5.48.65h0Z"/>
    <path class="cls-2" d="M28.72,21.99c1.77-1.64,4.27-.19,2.97,2.1-1.71,1.59-4.08,2.54-6.01,3.85-2.97,2.11-3.14-1.43-2.99-3.66,0-.29-.09-2.05.01-2.17.14-.16.55.37.64.47,1.85,1.94,3.55.57,5.39-.59h0Z"/>
    <path class="cls-2" d="M17.88,19.07c-.43-2.42,2.07-3.87,3.28-1.52.42,2.34-.03,4.92.04,7.31.19,3.72-2.82,2.02-4.58.73-.23-.13-1.78-1-1.78-1.16,0-.2.62-.29.78-.32,2.52-.64,2.25-2.86,2.26-5.04h0Z"/>
    <path class="cls-2" d="M23.51,41.72c.47,2.41-2.02,3.9-3.26,1.57-.25-.58-.18-1.74-.18-2.4,0-1.64.04-3.27.04-4.91-.23-1.29.58-2.79,2.01-2.22.81.27,1.8.97,2.56,1.42.22.12,1.82.98,1.8,1.15-.03.18-.6.28-.75.31-2.35.45-2.32,3.11-2.21,5.07h0Z"/>
  </g>
  <g>
    <path class="cls-3" d="M111.05,19.97h3.6v1.06h-2.37v.68h2.15v.98h-2.15v.71h2.41v1.06h-3.63v-4.48Z"/>
    <path class="cls-3" d="M115.25,20.98h1.22v.49c.22-.29.54-.56,1.04-.56.74,0,1.18.49,1.18,1.27v2.26h-1.22v-1.87c0-.38-.2-.58-.49-.58s-.51.2-.51.58v1.87h-1.22v-3.46Z"/>
    <path class="cls-3" d="M119.16,22.73h0c0-1.02.72-1.82,1.75-1.82,1.2,0,1.75.88,1.75,1.89,0,.08,0,.17,0,.25h-2.32c.1.38.37.57.75.57.29,0,.52-.11.77-.35l.67.56c-.33.42-.81.7-1.5.7-1.09,0-1.86-.72-1.86-1.8ZM121.52,22.43c-.04-.38-.27-.63-.6-.63s-.54.25-.6.63h1.2Z"/>
    <path class="cls-3" d="M123.17,20.98h1.22v.7c.2-.47.52-.78,1.09-.76v1.28h-.1c-.63,0-.99.36-.99,1.16v1.07h-1.22v-3.46Z"/>
    <path class="cls-3" d="M125.82,25.08l.39-.81c.37.2.74.33,1.21.33.61,0,.91-.3.91-.85v-.13c-.24.28-.56.52-1.07.52-.85,0-1.54-.61-1.54-1.61h0c0-1.01.7-1.63,1.5-1.63.52,0,.83.21,1.09.49v-.41h1.22v2.63c0,.63-.14,1.07-.45,1.38-.31.31-.8.49-1.52.49-.67,0-1.23-.14-1.73-.4ZM128.33,22.53h0c0-.4-.29-.68-.7-.68s-.71.29-.71.67h0c0,.4.29.68.71.68s.7-.29.7-.67Z"/>
    <path class="cls-3" d="M130.18,19.77h1.27v.9h-1.27v-.9ZM130.2,20.98h1.22v3.46h-1.22v-3.46Z"/>
    <path class="cls-3" d="M131.92,23.45h0c0-.73.54-1.1,1.36-1.1.32,0,.63.06.83.13v-.06c0-.36-.22-.56-.69-.56-.36,0-.65.07-.95.19l-.25-.86c.39-.16.81-.27,1.4-.27s1.04.15,1.32.42c.26.26.37.61.37,1.1v1.99h-1.2v-.36c-.24.26-.56.44-1.02.44-.66,0-1.16-.38-1.16-1.07ZM134.13,23.19v-.16c-.12-.05-.29-.09-.47-.09-.35,0-.56.17-.56.43h0c0,.25.18.39.43.39.35,0,.6-.22.6-.57Z"/>
  </g>
  <g>
    <path class="cls-3" d="M113.86,31.85v-1.69c-.07.1-.14.19-.23.28-.08.09-.18.17-.28.24-.1.07-.22.12-.34.16-.13.04-.27.06-.42.06-.2,0-.39-.04-.58-.12-.19-.08-.36-.19-.51-.34-.15-.15-.27-.33-.36-.54-.09-.21-.13-.46-.13-.73s.04-.52.13-.73c.09-.21.21-.39.36-.54.15-.15.32-.26.51-.34.19-.08.38-.12.58-.12.15,0,.29.02.42.06s.24.09.35.15c.1.06.2.14.28.22.08.09.16.17.22.27v-.63h.49v4.33h-.49ZM113.78,28.65c-.07-.16-.16-.29-.27-.4-.11-.11-.24-.2-.38-.26-.14-.06-.29-.09-.44-.09-.16,0-.31.03-.45.09-.14.06-.26.14-.37.25-.1.11-.19.24-.25.4-.06.16-.09.34-.09.54s.03.37.09.53c.06.16.15.29.25.4.11.11.23.2.37.26.14.06.29.09.45.09s.3-.03.44-.09c.14-.06.27-.15.38-.26.11-.11.2-.25.27-.4s.1-.33.1-.53-.03-.36-.1-.52Z"/>
    <path class="cls-3" d="M117.8,27.52h.49v3.31h-.49v-.58c-.11.18-.26.33-.43.46-.18.13-.41.19-.7.19-.2,0-.38-.03-.53-.1-.16-.06-.29-.15-.4-.27-.11-.12-.19-.26-.25-.42-.06-.16-.09-.34-.09-.54v-2.05h.49v1.93c0,.31.08.55.24.73.16.18.38.27.68.27.14,0,.27-.02.39-.07.12-.05.23-.12.31-.21.09-.09.16-.2.21-.33.05-.13.08-.27.08-.42v-1.89Z"/>
    <path class="cls-3" d="M119.82,29.83c.07.14.16.26.26.35.11.1.23.17.36.22.13.05.27.07.42.07.23,0,.43-.04.59-.13.16-.09.31-.2.45-.34l.31.28c-.17.19-.36.34-.57.45-.21.11-.48.17-.79.17-.23,0-.44-.04-.64-.12s-.38-.2-.53-.35c-.15-.15-.27-.33-.36-.55-.09-.21-.13-.45-.13-.7,0-.24.04-.46.12-.67.08-.21.19-.39.33-.55.14-.16.31-.28.5-.37.19-.09.41-.13.64-.13.24,0,.46.05.65.14s.35.22.49.37c.13.16.23.34.3.56.07.21.1.44.1.68v.07s0,.05,0,.08h-2.62c.02.18.06.34.13.48ZM121.81,28.99c-.01-.15-.04-.29-.09-.43-.05-.14-.12-.26-.2-.36s-.19-.18-.32-.25c-.13-.06-.27-.09-.44-.09-.14,0-.28.03-.4.09-.12.06-.23.14-.32.24-.09.1-.17.22-.23.36-.06.14-.1.29-.11.45h2.12Z"/>
    <path class="cls-3" d="M127.37,30.72c-.21.12-.47.18-.78.18-.24,0-.47-.05-.67-.14-.21-.09-.39-.22-.54-.37-.15-.16-.27-.34-.36-.55-.09-.21-.13-.43-.13-.67s.04-.46.13-.67c.09-.21.2-.4.36-.55.15-.16.33-.28.54-.37s.43-.14.67-.14c.16,0,.3.01.43.04.13.03.25.07.35.12.11.05.2.12.29.19.09.07.17.15.25.23l-.33.35c-.13-.14-.28-.25-.43-.35-.16-.1-.35-.15-.57-.15-.17,0-.32.03-.47.1-.15.07-.27.16-.38.27-.11.12-.19.25-.25.41-.06.16-.09.32-.09.5s.03.35.09.5.15.29.26.41.24.21.38.27c.15.07.31.1.48.1.21,0,.4-.05.57-.14.16-.09.31-.21.44-.35l.31.29c-.17.19-.36.34-.57.46Z"/>
    <path class="cls-3" d="M129.41,27.97c-.16.04-.32.1-.47.18l-.15-.4c.18-.09.37-.15.56-.2.19-.05.4-.07.65-.07.45,0,.8.11,1.04.34.24.22.36.56.36.99v2.02h-.47v-.5c-.12.15-.27.28-.46.4s-.44.17-.73.17c-.15,0-.3-.02-.45-.06s-.28-.11-.4-.2c-.12-.09-.21-.2-.28-.32-.07-.13-.11-.28-.11-.45s.03-.33.1-.46c.07-.13.17-.25.29-.34.13-.09.28-.16.45-.2.17-.05.36-.07.57-.07s.4.01.56.04c.16.03.31.06.46.1v-.12c0-.3-.09-.52-.26-.67-.17-.15-.41-.23-.73-.23-.2,0-.37.02-.53.07ZM129.26,29.33c-.17.12-.25.29-.25.51,0,.11.02.2.07.28.04.08.11.15.18.21.08.06.16.1.26.13.1.03.21.04.32.04.15,0,.3-.02.43-.07.13-.04.25-.11.35-.19.1-.08.18-.17.24-.28.06-.11.09-.23.09-.36v-.32c-.12-.03-.26-.07-.42-.1-.16-.03-.34-.04-.55-.04-.31,0-.55.06-.71.19Z"/>
    <path class="cls-3" d="M132.95,30.82h-.49v-3.31h.49v.86c.06-.14.13-.26.22-.38.09-.12.19-.21.31-.3s.24-.15.38-.19c.14-.04.28-.06.44-.06v.53h-.04c-.18,0-.35.03-.51.1s-.3.16-.42.29c-.12.13-.21.29-.28.48-.07.19-.1.41-.1.66v1.32Z"/>
    <path class="cls-3" d="M135.54,30.82h-.49v-3.31h.49v.86c.06-.14.13-.26.22-.38.09-.12.19-.21.31-.3s.24-.15.38-.19c.14-.04.28-.06.44-.06v.53h-.04c-.18,0-.35.03-.51.1s-.3.16-.42.29c-.12.13-.21.29-.28.48-.07.19-.1.41-.1.66v1.32Z"/>
    <path class="cls-3" d="M137.93,29.83c.07.14.16.26.26.35.11.1.23.17.36.22.13.05.27.07.42.07.23,0,.43-.04.59-.13.16-.09.31-.2.45-.34l.31.28c-.17.19-.36.34-.57.45-.21.11-.48.17-.79.17-.23,0-.44-.04-.64-.12s-.38-.2-.53-.35c-.15-.15-.27-.33-.36-.55-.09-.21-.13-.45-.13-.7,0-.24.04-.46.12-.67.08-.21.19-.39.33-.55.14-.16.31-.28.5-.37.19-.09.41-.13.64-.13.24,0,.46.05.65.14s.35.22.49.37c.13.16.23.34.3.56.07.21.1.44.1.68v.07s0,.05,0,.08h-2.62c.02.18.06.34.13.48ZM139.92,28.99c-.01-.15-.04-.29-.09-.43-.05-.14-.12-.26-.2-.36s-.19-.18-.32-.25c-.13-.06-.27-.09-.44-.09-.14,0-.28.03-.4.09-.12.06-.23.14-.32.24-.09.1-.17.22-.23.36-.06.14-.1.29-.11.45h2.12Z"/>
    <path class="cls-3" d="M144.32,30.95c-.08.2-.19.37-.34.5-.15.13-.32.24-.53.3-.21.07-.44.1-.69.1-.28,0-.54-.04-.79-.12-.25-.08-.49-.19-.71-.35l.22-.38c.19.14.39.24.6.31.21.07.43.11.67.11.37,0,.66-.1.88-.3.22-.2.33-.49.33-.88v-.39c-.15.19-.32.36-.53.49s-.46.2-.77.2c-.2,0-.39-.04-.58-.11s-.35-.17-.5-.31c-.15-.13-.26-.3-.35-.49-.09-.19-.13-.41-.13-.65s.04-.46.13-.66c.09-.19.2-.36.35-.49.14-.13.31-.24.5-.31.19-.07.38-.11.58-.11.15,0,.3.02.43.05.13.04.25.08.35.14.1.06.2.13.28.21.09.08.16.17.23.26v-.6h.49v2.73c0,.27-.04.5-.12.7ZM143.86,28.54c-.07-.14-.16-.26-.27-.36-.11-.1-.24-.17-.39-.23-.15-.05-.3-.08-.45-.08s-.31.03-.44.08c-.14.05-.26.13-.36.22-.1.1-.19.22-.25.36-.06.14-.09.29-.09.46s.03.33.09.46c.06.14.14.26.25.36.1.1.23.18.36.23.14.05.28.08.44.08s.31-.03.45-.08c.14-.05.27-.13.39-.23.11-.1.2-.22.27-.36.07-.14.1-.29.1-.46s-.03-.33-.1-.46Z"/>
    <path class="cls-3" d="M146.2,27.97c-.16.04-.32.1-.47.18l-.15-.4c.18-.09.37-.15.56-.2.19-.05.4-.07.65-.07.45,0,.8.11,1.04.34.24.22.36.56.36.99v2.02h-.47v-.5c-.12.15-.27.28-.46.4s-.44.17-.73.17c-.15,0-.3-.02-.45-.06s-.28-.11-.4-.2c-.12-.09-.21-.2-.28-.32-.07-.13-.11-.28-.11-.45s.03-.33.1-.46c.07-.13.17-.25.29-.34.13-.09.28-.16.45-.2.17-.05.36-.07.57-.07s.4.01.56.04c.16.03.31.06.46.1v-.12c0-.3-.09-.52-.26-.67-.17-.15-.41-.23-.73-.23-.2,0-.37.02-.53.07ZM146.04,29.33c-.17.12-.25.29-.25.51,0,.11.02.2.07.28.04.08.11.15.18.21.08.06.16.1.26.13.1.03.21.04.32.04.15,0,.3-.02.43-.07.13-.04.25-.11.35-.19.1-.08.18-.17.24-.28.06-.11.09-.23.09-.36v-.32c-.12-.03-.26-.07-.42-.1-.16-.03-.34-.04-.55-.04-.31,0-.55.06-.71.19Z"/>
  </g>
  <g>
    <path class="cls-3" d="M114.31,36.21c-.09.21-.21.4-.36.55-.15.16-.34.28-.55.37-.21.09-.44.14-.69.14s-.48-.05-.68-.14c-.21-.09-.39-.22-.54-.37-.15-.16-.27-.34-.36-.55-.09-.21-.13-.43-.13-.67s.04-.46.13-.67c.09-.21.2-.4.36-.55s.34-.28.55-.37c.21-.09.44-.14.69-.14s.48.05.69.14c.21.09.39.22.55.37.15.16.27.34.36.55.09.21.13.43.13.67s-.04.46-.13.67ZM113.85,35.05c-.06-.16-.15-.29-.26-.41-.11-.12-.24-.21-.39-.28-.15-.07-.31-.1-.49-.1s-.34.03-.49.1c-.15.07-.28.16-.38.27-.1.12-.19.25-.25.41-.06.16-.09.32-.09.5s.03.35.09.5.15.29.26.41.24.21.39.27c.15.07.31.1.49.1s.34-.03.49-.1c.15-.07.28-.16.38-.27.11-.11.19-.25.25-.41.06-.16.09-.32.09-.5s-.03-.35-.09-.5Z"/>
    <path class="cls-3" d="M118.98,33.91v.42h-1.04v2.87h-.49v-2.87h-.45v-.43h.45v-.29c0-.36.09-.64.26-.83.17-.19.42-.28.74-.28.12,0,.21,0,.3.02.08.01.17.03.25.06v.43c-.09-.03-.17-.05-.24-.06-.07-.01-.15-.02-.24-.02-.38,0-.58.23-.58.7v.27h1.05Z"/>
    <path class="cls-3" d="M121.95,33.9h.49v3.31h-.49v-.58c-.11.18-.26.33-.43.46-.18.13-.41.19-.7.19-.2,0-.38-.03-.53-.1-.16-.06-.29-.15-.4-.27-.11-.12-.19-.26-.25-.42-.06-.16-.09-.34-.09-.54v-2.05h.49v1.93c0,.31.08.55.24.73.16.18.38.27.68.27.14,0,.27-.02.39-.07.12-.05.23-.12.31-.21.09-.09.16-.2.21-.33.05-.13.08-.27.08-.42v-1.89Z"/>
    <path class="cls-3" d="M124.21,36.26c0,.2.05.35.15.43.1.08.24.12.4.12.09,0,.17,0,.24-.03.07-.02.15-.05.24-.09v.42c-.09.05-.18.08-.27.11-.1.02-.2.04-.32.04-.13,0-.26-.02-.37-.05s-.21-.09-.3-.16c-.08-.07-.15-.17-.2-.29-.05-.12-.07-.26-.07-.43v-2h-.46v-.43h.46v-1h.49v1h1.05v.43h-1.05v1.93Z"/>
    <path class="cls-3" d="M128.48,33.9h.49v3.31h-.49v-.58c-.11.18-.26.33-.43.46-.18.13-.41.19-.7.19-.2,0-.38-.03-.53-.1-.16-.06-.29-.15-.4-.27-.11-.12-.19-.26-.25-.42-.06-.16-.09-.34-.09-.54v-2.05h.49v1.93c0,.31.08.55.24.73.16.18.38.27.68.27.14,0,.27-.02.39-.07.12-.05.23-.12.31-.21.09-.09.16-.2.21-.33.05-.13.08-.27.08-.42v-1.89Z"/>
    <path class="cls-3" d="M130.56,37.2h-.49v-3.31h.49v.86c.06-.14.13-.26.22-.38.09-.12.19-.21.31-.3s.24-.15.38-.19c.14-.04.28-.06.44-.06v.53h-.04c-.18,0-.35.03-.51.1s-.3.16-.42.29c-.12.13-.21.29-.28.48-.07.19-.1.41-.1.66v1.32Z"/>
    <path class="cls-3" d="M135.64,36.21c-.09.21-.21.4-.36.55-.15.16-.34.28-.55.37-.21.09-.44.14-.69.14s-.48-.05-.68-.14c-.21-.09-.39-.22-.54-.37-.15-.16-.27-.34-.36-.55-.09-.21-.13-.43-.13-.67s.04-.46.13-.67c.09-.21.2-.4.36-.55s.34-.28.55-.37c.21-.09.44-.14.69-.14s.48.05.69.14c.21.09.39.22.55.37.15.16.27.34.36.55.09.21.13.43.13.67s-.04.46-.13.67ZM135.17,35.05c-.06-.16-.15-.29-.26-.41-.11-.12-.24-.21-.39-.28-.15-.07-.31-.1-.49-.1s-.34.03-.49.1c-.15.07-.28.16-.38.27-.1.12-.19.25-.25.41-.06.16-.09.32-.09.5s.03.35.09.5.15.29.26.41.24.21.39.27c.15.07.31.1.49.1s.34-.03.49-.1c.15-.07.28-.16.38-.27.11-.11.19-.25.25-.41.06-.16.09-.32.09-.5s-.03-.35-.09-.5Z"/>
    <path class="cls-3" d="M136.48,37.2v-.67h.59v.67h-.59Z"/>
  </g>
</svg>